# xmcd
#
# Track frame offsets:
#	150
#	19256
#	36603
#	58492
#	74308
#	93825
#	109129
#	130640
#	171097
#	189763
#	205367
#	226759
#
# Disc length: 3218 seconds
#
# Revision: 1
# Processed by: cddbd v1.5.1PL0 Copyright (c) Steve Scherf et al.
# Submitted via: audiograbber 1.83.01
#
DISCID=a40c900c
DTITLE=Los Lonely Boys - Los Lonely Boys
DYEAR=2004
DGENRE=
TTITLE0=Señorita
TTITLE1=Heaven
TTITLE2=Crazy Dream
TTITLE3=Dime Mi Amor
TTITLE4=Hollywood
TTITLE5=More Than Love
TTITLE6=Nobody Else
TTITLE7=Onda
TTITLE8=Real Emotions
TTITLE9=Tell Me Why
TTITLE10=Velvet Sky
TTITLE11=La Contestacion
EXTD=
EXTT0=
EXTT1=
EXTT2=
EXTT3=
EXTT4=
EXTT5=
EXTT6=
EXTT7=
EXTT8=
EXTT9=
EXTT10=
EXTT11=
PLAYORDER=
